<svg width="200" height="200" viewBox="0 0 200 200" fill="none" xmlns="http://www.w3.org/2000/svg">
  <defs>
    <linearGradient id="tech-gradient" x1="0%" y1="0%" x2="100%" y2="100%">
      <stop offset="0%" stop-color="#4FACFE" />
      <stop offset="100%" stop-color="#00F2FE" />
    </linearGradient>
    <filter id="glow" x="-20%" y="-20%" width="140%" height="140%">
      <feGaussianBlur stdDeviation="3" result="blur" />
      <feMerge>
        <feMergeNode in="blur" />
        <feMergeNode in="SourceGraphic" />
      </feMerge>
    </filter>
  </defs>

  <path d="M100 10 L177.94 55 V145 L100 190 L22.06 145 V55 L100 10Z" 
        stroke="url(#tech-gradient)" stroke-width="4" fill="none" filter="url(#glow)"/>

  <rect x="60" y="50" width="80" height="100" rx="8" 
        stroke="url(#tech-gradient)" stroke-width="3" fill="#ffffff" opacity="0.9" />
  
  <path d="M75 75 H125" stroke="#E0E0E0" stroke-width="3" stroke-linecap="round"/>
  <path d="M75 95 H125" stroke="#E0E0E0" stroke-width="3" stroke-linecap="round"/>
  <path d="M75 115 H100" stroke="#E0E0E0" stroke-width="3" stroke-linecap="round"/>
  
  <g filter="url(#glow)">
    <circle cx="85" cy="120" r="4" fill="url(#tech-gradient)"/>
    <circle cx="115" cy="120" r="4" fill="url(#tech-gradient)"/>
    <circle cx="100" cy="90" r="4" fill="url(#tech-gradient)"/>
    <circle cx="100" cy="140" r="4" fill="url(#tech-gradient)"/>
    
    <path d="M85 120 L100 90" stroke="url(#tech-gradient)" stroke-width="2" opacity="0.7"/>
    <path d="M115 120 L100 90" stroke="url(#tech-gradient)" stroke-width="2" opacity="0.7"/>
    <path d="M85 120 L100 140" stroke="url(#tech-gradient)" stroke-width="2" opacity="0.7"/>
    <path d="M115 120 L100 140" stroke="url(#tech-gradient)" stroke-width="2" opacity="0.7"/>
    <path d="M85 120 L115 120" stroke="url(#tech-gradient)" stroke-width="2" opacity="0.7"/>
  </g>

  <path d="M110 135 L118 143 L135 126" stroke="url(#tech-gradient)" stroke-width="4" stroke-linecap="round" stroke-linejoin="round" filter="url(#glow)"/>

</svg>